<svg xmlns="http://www.w3.org/2000/svg" xmlns:xlink="http://www.w3.org/1999/xlink" preserveAspectRatio="xMidYMid meet" version="1.0" viewBox="-0.1 -0.1 500.2 423.4" zoomAndPan="magnify" style="fill: rgb(207, 232, 25);" original_string_length="41162" width="175.4px" height="148.2927272727273px"><g><g id="__id0_sizrye2i1"><path d="M249.11,168.12c-1.07,.11-1.94,.3-2.81,.27-1.76-.06-2.56-1.66-1.71-3.25,.56-1.05,1.39-1.78,2.51-2.15,1.58-.52,2.5-1.58,2.86-3.19,.4-1.8,1.51-3.14,2.87-4.31,.48-.41,.97-.79,1.45-1.2,1.84-1.61,2.03-3.65,1.48-5.85-.27-1.06-1.38-1.48-2.37-.94-.11,.06-.19,.16-.29,.24-.56,.49-1.14,1.17-1.95,.65-.99-.64-.59-1.53-.17-2.32,.49-.93,.38-1.96,.58-2.93,.48-2.33,1.63-4.16,3.83-5.28,1.83-.93,3.56-1.24,5.24,.22,1.13,.98,2.24,.84,3.46,.15,1.2-.68,2.45-1.27,3.7-1.86,1.71-.81,3.17-.33,4.45,.93,1.16,1.14,1.45,2.37,.48,3.7-2.07,2.85-2.53,5.98-1.82,9.29,.66,3.08-.55,5.66-1.83,8.26-.34,.69-.93,1.19-1.64,1.5-2.93,1.29-5.26,3.38-7.53,5.57-1.21,1.17-2.61,2.09-4.3,2.11-2.25,.02-4.42,1.22-6.51,.4Z" style="fill: inherit;"/><path d="M219.92,168.92c-.14-.66-.29-1.52-.51-2.36-.23-.87-.32-1.73-.11-2.6,.94-3.89,4.36-4.98,7.42-2.39,1.68,1.43,2.46,3.45,3.48,5.31,.6,1.1,1.1,2.23,2.11,3.05,1.07,.86,2.01,1.87,3.46,2.15,1.17,.23,1.98,.99,2.66,1.94,1.05,1.48,1.18,3.03,.27,4.58-1.09,1.84-2.39,3.53-4.15,4.8-1.31,.95-2.29,1.97-1.48,3.75,.15,.32,.13,.74,.12,1.11-.02,2.13-1.05,3.51-3.12,4.16-1.68,.53-3.89,.1-4.65-1.5-1.11-2.36-2.76-3.84-4.89-5.29-3.22-2.2-4.19-7.65-2.55-11.26,.36-.8,.82-1.55,1.18-2.35,.25-.57,.44-1.17,.61-1.77,.1-.36,.09-.74,.15-1.33Z" style="fill: inherit;"/><path d="M244.43,206.4c-2.04,0-3.77-.01-5.29-1.2-3.11-2.45-3.98-5.81-2.2-9.38,1.79-3.59,4.34-6.44,8.23-7.87,1.17-.43,2.42-.77,3.31-1.73,1.46-1.56,3.4-1.43,5.26-1.5,1.23-.04,1.76,1.06,1.05,2.09-.28,.4-.71,.7-1.05,1.07-.29,.32-.24,.66,.03,.98,.08,.09,.17,.18,.26,.27,1.34,1.22,2.44,2.59,2.39,4.51-.06,2.35,.11,4.69-1.46,6.84-1.33,1.83-2.43,3.73-4.6,4.77-2,.96-4.1,1.11-5.96,1.15Z" style="fill: inherit;"/><path d="M270.52,234.98c-2.25,.09-3.59-1.68-2.68-3.7,.66-1.47,1.51-2.88,2.41-4.22,1.09-1.63,.89-1.47,.06-3.25-.95-2.05-1.98-4.11-1.02-6.71,2-5.4,4.3-7.01,10.66-7.79,1.39-.17,2.75,.17,4.02,.72,1.82,.78,2.65,2.33,2.13,4.25-.52,1.92-1.44,3.72-1.41,5.79,0,.44-.34,.94-.62,1.34-1.3,1.83-2.56,3.63-3.14,5.9-.34,1.31-1.48,2.42-2.86,2.78-1.94,.51-3.36,1.47-4.36,3.23-.66,1.15-1.86,1.62-3.19,1.67Z" style="fill: inherit;"/><path d="M309.51,178.52c-2.45,.94-4.88,1.15-7.26-.22-.95-.55-1.92-.43-2.92-.17-1.1,.29-2.21,.47-3.35,.32-2.81-.37-4.58-2.26-4.49-5.09,.12-3.88,2.21-6.61,5.55-8.32,1.43-.73,3.07-1.06,4.62-1.56,2.03-.66,3.79-.15,5.02,1.54,.9,1.23,1.93,1.91,3.44,1.9,.37,0,.75,.1,1.1,.22,2.59,.85,3.72,3.09,2.72,5.65-.54,1.4-1.34,2.69-2.02,4.03-.92,.4-1.92,.7-2.42,1.7Z" style="fill: inherit;"/><path d="M271.08,197.54c-.47-3.52,1.13-5.95,3.71-7.83,2.34-1.71,4.79-3.22,7.83-3.35,3.12-.14,4.31,.74,5.03,3.81,.64,2.77,.43,5.49-.66,8.1-1.83,4.37-8.08,7.25-12.18,5.71-2.37-.9-3.7-2.48-3.71-5.07,0-.5,0-1,0-1.37Z" style="fill: inherit;"/><path d="M298.43,147.71c-.31-.88-.35-2.61,.67-4.18,1.23-1.88,2.58-3.68,4.73-4.66,1.55-.71,2.91-.45,4.14,.66,.78,.71,1.31,1.57,.95,2.65-.59,1.82-.55,3.69-.65,5.56-.11,2.03-.76,3.91-1.5,5.77-.42,1.05-1.04,1.99-1.94,2.71-1.56,1.24-3.1,2.5-4.69,3.69-1.05,.79-2.28,.43-2.74-.75-.14-.35-.12-.76-.3-1.08-1.47-2.61-1.3-4.98,.87-7.15,.64-.64,1.05-1.41,.46-3.23Z" style="fill: inherit;"/><path d="M259.41,248.94c1.72-.04,2.73,.09,3.45,.89,.92,1.03,1.93,.94,3.06,.48,1.3-.52,2.65-.75,4.04-.46,2.1,.43,2.86,1.92,2.03,3.93-1.29,3.12-3.39,4.09-6.6,2.72-1.29-.55-1.94-.27-2.93,.52-2.13,1.7-4.58,1.8-7.08,.75-1.26-.53-2.39-1.27-3.81-1.5-1.75-.3-2.57-1.36-2.58-2.72,0-1.29,.96-2.63,2.27-3.17,.12-.05,.24-.12,.35-.12,2.9,.02,5.62-1.06,7.79-1.33Z" style="fill: inherit;"/><path d="M318.52,233.79c1.25,0,2.5-.03,3.74,.01,.83,.03,1.51,.65,1.4,1.44-.24,1.65-.23,3.19,.74,4.65,.27,.41-.12,.92-.48,1.3-3.55,3.8-8.07,4.19-12.79,3.46-2.77-.43-4.28-3.51-3.09-6.09,1.24-2.67,3.44-4.26,6.36-4.65,1.35-.18,2.74-.03,4.12-.03,0-.04,0-.07,0-.11Z" style="fill: inherit;"/><path d="M240.61,264.21c-4.29-.05-6.9-3.71-5.48-7.74,.29-.82,.69-1.62,1.13-2.36,.31-.53,.72-1.04,1.21-1.41,3.57-2.65,9.6-.45,10.63,3.86,.11,.47,.13,1,.05,1.48-.61,3.43-4.03,6.21-7.54,6.17Z" style="fill: inherit;"/><path d="M342.47,142.77c.81,.3,1.18,.87,1.08,1.74-.2,1.67-.88,3.13-1.9,4.44-1.15,1.47-2.81,2.53-3.5,4.39-.1,.28-.56,.58-.87,.61-1.56,.15-2.9,.84-4.14,1.7-1.43,.99-2.63,.42-3.79-.4-1.43-1-1.78-3.02-1.16-4.65,1.41-3.76,4.46-5.59,7.88-7.05,.84-.36,1.71-.33,2.59-.17,1.12,.2,2.24,.34,3.3-.28,.16-.12,.33-.23,.51-.32Z" style="fill: inherit;"/><path d="M360.73,230.44c-1.55-.03-2.55-.06-3.47-.54-1.59-.82-2.05-2.71-.97-4.13,.37-.48,.83-1.04,1.37-1.23,2.28-.84,4.44-2.38,7.12-1.3,.93,.38,1.98,.3,2.95-.03,.99-.34,1.63-.88,1.82-2.09,.51-3.12,2.1-4.33,5.08-4.08,.72,.06,1.61,.12,1.97,.86,.38,.78-.24,1.43-.69,1.99-.47,.57-1.01,1.12-1.61,1.55-.94,.67-1.75,1.33-1.98,2.58-.17,.94-.95,1.56-1.85,1.66-2.26,.27-3.85,1.64-5.5,2.99-1.39,1.14-2.93,1.94-4.27,1.75Z" style="fill: inherit;"/><path d="M137.41,94.05c-1.35,0-2.39-.35-3.24-1.2-3.18-3.16-2.41-9.6,1.42-11.83,1.5-.87,2.89-.48,4.21,.43,2.97,2.02,4.25,9.37-.45,11.98-.67,.37-1.35,.63-1.95,.62Z" style="fill: inherit;"/><path d="M237.36,51.74c.21-.14,.43-.26,.62-.42,2.38-2.14,4.31-1.06,6.06,.21,1.59,1.16,1.83,2.21,1.26,4.22-.34,1.2-.65,2.4-.95,3.61-.49,1.92-1.63,3.35-3.29,4.35-1.57,.94-3.76,.24-3.8-1.51-.08-2.95-1.68-5.76-.74-8.76,.28-.56,.56-1.13,.84-1.69Z" style="fill: inherit;"/><path d="M154.55,123.08c0,.75-.01,1.49,0,2.24,.03,1.76-.86,3.08-2.08,4.21-1.52,1.41-3.55,1.82-5.15,.96-1.8-.97-2.67-2.55-2.57-4.6,.16-3.5,2.14-5.81,5.54-6.53,.12-.03,.25-.04,.37-.06,3.71-.63,4.32-.06,3.89,3.78Z" style="fill: inherit;"/><path d="M370.07,200.03c.56,0,.69,0,.81,0,1.59-.08,3.06,.19,3.76,1.83,.64,1.49-.17,2.69-1.14,3.71-.85,.91-1.81,1.73-2.77,2.52-.88,.73-1.95,1.12-3.05,1.38-2.3,.55-4.54-.43-5.41-2.32-.69-1.51,.19-4.08,1.87-5.28,1.9-1.36,4.01-2.01,5.92-1.84Z" style="fill: inherit;"/><path d="M350.46,200.37c.29,3.01-1.57,4.84-3.65,6.5-.78,.62-1.79,.84-2.83,.74-1.2-.13-2.21-1.01-2.09-2.19,.12-1.16-.11-2.14-.44-3.23-.67-2.17,.02-3.48,2.05-4.62,1.1-.62,2.25-1.05,3.55-.96,2.64,.18,3.46,1.08,3.41,3.76Z" style="fill: inherit;"/><path d="M319.97,124.42c.11-.46,.29-1.43,.59-2.37,.33-1,.99-1.73,2.1-1.88,1.25-.16,2.38-.63,3.52-1.16,1.06-.5,1.96-.04,2.4,1.03,1.14,2.8,.69,5.36-1.24,7.65-1.28,1.51-2.97,1.94-4.7,1.3-1.77-.65-2.68-2.02-2.67-4.57Z" style="fill: inherit;"/><path d="M286,208.04c.07-.26,.29-.63,.25-.97-.31-2.93,1.46-4.28,3.89-5.06,1.18-.38,2.39-.73,3.61-.87,1.89-.22,2.88,1.05,2.22,2.77-1.29,3.35-3.8,5.46-7.1,6.65-1.53,.55-2.99-.74-2.86-2.52Z" style="fill: inherit;"/><path d="M322.51,173.04c-.54,.52-1.07,1.05-1.61,1.57-1.28,1.24-1.74,1.24-3.16,.13-1.25-.98-2.3-2.18-1.81-3.81,.69-2.28,1.7-3.91,3.88-4.01,1.99-.09,3.98-.28,5.97-.37,.89-.04,1.4,.71,1.04,1.48-.97,2.08-2.25,3.9-4.33,5.01h0Z" style="fill: inherit;"/><path d="M369.37,149.15c-.01,.23,.06,.52-.05,.71-1.07,1.83-2.12,3.68-3.29,5.45-.99,1.51-2.45,2.47-4.19,2.98-1.15,.34-2.25,.27-3.1-.69-.8-.91-.88-2.35-.19-3.51,.78-1.32,1.94-2.3,3.22-3.08,2.04-1.25,4.28-2.02,6.67-2.3,.38-.04,.72,.06,.92,.44Z" style="fill: inherit;"/><path d="M236.54,225.67c.1,3.08-.97,5.08-3.23,6.41-1.17,.69-2.38,.74-3.56-.04-1.15-.76-1.67-1.84-1.6-3.2,.16-2.83,3.57-6.34,6.42-6.58,.69-.06,1.31,.29,1.49,.91,.29,.95,.37,1.96,.47,2.5Z" style="fill: inherit;"/><path d="M283.36,106.79c-2.14,.08-3.73-1.32-3.76-3.32-.07-3.44,3.37-6.45,6.76-5.92,.65,.1,1.17,.41,1.53,.96,1.59,2.44-.8,8.34-4.52,8.28Z" style="fill: inherit;"/><path d="M405.02,20.05c.04,.69-.28,1.28-.8,1.6-1.82,1.14-2.67,2.85-3.31,4.81-.6,1.81-1.9,3.21-3.33,4.44-.37,.32-.79,.61-1.23,.84-1.33,.71-2.66,.56-3.43-.36-.74-.89-.81-2.34,.01-3.48,1.25-1.73,2.75-3.34,4.68-4.22,2.23-1.01,4.22-2.12,5.31-4.43,.24-.51,.78-.57,1.3-.37,.46,.18,.82,.73,.8,1.16Z" style="fill: inherit;"/><path d="M351.52,157.4c-2.3,.06-3.79-1.98-3.28-3.94,.29-1.11,.89-2.09,1.78-2.81,1.47-1.18,3.08-2.15,4.83-2.84,1.56-.62,3.11,.46,3.13,2.1,.03,2.75-3.79,7.14-6.51,7.49-.12,.02-.25,0,.05,0Z" style="fill: inherit;"/><path d="M364.61,180.1c0,1.31-.68,2.7-1.98,3.53-1.95,1.23-3.43,2.81-4.69,4.71-.72,1.08-1.84,1.64-3.22,1.6-1.38-.05-2.2-1.47-1.53-2.68,.58-1.04,1.47-1.73,2.57-2.05,1.13-.33,1.67-.97,1.7-2.13,.06-2.59,2.03-3.88,3.79-5.15,1.61-1.16,3.27-.12,3.35,2.18Z" style="fill: inherit;"/><path d="M234.8,131.97c-.05,.26-.07,.65-.22,.98-.89,1.98-2.14,3.65-4.09,4.7-1.19,.65-2.38,.65-3.56-.03-1.61-.93-2.06-2.49-1.18-4.15,1.27-2.39,3.5-3.48,5.95-4.14,1.41-.38,3.07,1.08,3.09,2.63Z" style="fill: inherit;"/><path d="M167.67,117.06c.02-2.69,2.47-4.37,4.89-3.27,2,.9,3.29,2.64,4.35,4.44,.9,1.54-.49,3.32-2.3,3.16-1.23-.1-2.47-.23-3.69-.43-2.04-.34-3.27-1.85-3.25-3.9Z" style="fill: inherit;"/><path d="M419.48,118.12c-1.9-.01-3.04-1.59-2.43-3.35,.51-1.49,1.61-2.5,2.88-3.36,1.24-.84,2.66-1.32,3.86-2.28,1.09-.87,2.83-.08,3.32,1.32,.11,.32,.16,.88-.03,1.07-1.74,1.78-2.68,4.24-4.87,5.62-.86,.54-1.72,1.04-2.72,.98Z" style="fill: inherit;"/><path d="M311.07,223.76c-1.33,0-2.27-.23-2.99-1.04-.98-1.1-1.06-2.6-.15-3.74,.89-1.11,2.06-1.88,3.43-2.07,1.71-.24,3.46-.29,5.19-.32,.91-.01,1.68,1.12,1.26,1.86-1.25,2.16-2.66,4.22-5.21,5.03-.58,.19-1.21,.22-1.53,.28Z" style="fill: inherit;"/><path d="M300.83,197.59c-1.72-.03-2.75-1.88-2.01-3.29,.61-1.15,1.59-1.92,2.69-2.53,.97-.54,1.53-1.18,1.32-2.39-.1-.58-.01-1.26,.18-1.83,.56-1.65,2.5-2.28,4-1.36,1.28,.79,1.54,2.43,.53,3.54-.25,.27-.54,.55-.87,.69-1.04,.47-1.3,1.13-1.28,2.34,.04,2.37-1.39,3.9-3.63,4.64-.35,.12-.73,.14-.93,.18Z" style="fill: inherit;"/><path d="M334.93,224.95c.27,.03,1.13,.17,2,.23,.74,.05,1.49,.07,2.22-.01,.82-.09,2.02-.91,2.36,.04,.5,1.38-1.03,1.34-1.89,1.62-1.11,.37-1.94,1.13-2.79,1.86-1.36,1.17-2.95,1.84-4.69,2.23-.89,.2-1.73,.15-2.56-.23-1.9-.88-2.17-2.88-.55-4.2,1.54-1.26,3.37-1.54,5.89-1.52Z" style="fill: inherit;"/><path d="M411.04,49.13c.01,.12,.08,.26,.04,.37-1.22,3.11-2.23,6.36-5.21,8.37-1.03,.7-2.13,1.47-3.42,.66-.94-.58-1-2.12-.29-3.8,.39-.94,.94-1.79,1.75-2.38,1.9-1.39,3.84-2.73,5.79-4.04,.49-.33,1.32,.22,1.35,.84Z" style="fill: inherit;"/><path d="M403.57,136.87c0-.79,.27-1.46,.76-2.07,.97-1.23,2.26-2,3.78-2.29,1.6-.3,3.2-.54,4.62-1.43,.27-.17,.73-.09,1.1-.07,.59,.04,1.12,.82,.97,1.38-.07,.24-.09,.54-.25,.69-1.8,1.73-3.56,3.5-5.46,5.1-.84,.71-2.01,1.02-3.17,1.05-1.38,.03-2.4-1-2.34-2.36Z" style="fill: inherit;"/><path d="M284.5,27.37c-1.7,.07-3.13-1.46-2.93-3.13,.14-1.17,.69-2.17,1.54-2.92,1.31-1.14,2.7-2.2,4.11-3.23,.67-.48,1.45-.4,2.08,.14,.6,.52,.96,1.25,.63,2.01-.95,2.17-2,4.29-3.45,6.17-.47,.6-1.19,.89-1.97,.95Z" style="fill: inherit;"/><path d="M451.07,289.11c1.47,.23,3.33,.49,5.18,.82,.79,.14,1.37,.63,1.44,1.5,.07,.88-.44,1.46-1.25,1.6-1.37,.24-2.63,.77-3.93,1.24-1.72,.62-3.44,.58-5.08-.33-.82-.46-1.32-1.15-1.38-2.1-.06-.92,.64-1.8,1.69-2.24,.94-.39,1.92-.55,3.33-.48Z" style="fill: inherit;"/><path d="M135.83,165.63c-2.54-.08-4.76-2.3-4.83-4.84-.02-.8,.3-1.46,.94-1.94,2.45-1.82,7.01,.15,7.39,3.19,.22,1.75-1.64,3.66-3.5,3.59Z" style="fill: inherit;"/><path d="M380.94,150.36c.13,0,.25-.03,.38-.02,.84,.04,1.85-.27,2.28,.79,.32,.79-.22,1.44-.67,2.04-1.82,2.41-3.2,2.77-6.13,1.65-.58-.22-1.28-.26-1.77-.6-1.04-.72-2.02-.85-3.14-.23-.3,.17-.75,.22-1.08,.14-.32-.08-.71-.35-.83-.64-.11-.29-.03-.76,.15-1.04,.5-.81,1.34-1.11,2.23-1.21,2.86-.31,5.72-.58,8.59-.87Z" style="fill: inherit;"/><path d="M288.63,73.02c-.4,1.33-.43,2.98-1.22,4.43-.86,1.58-2.24,2.27-3.96,2.35-1.18,.06-2.14-.8-2.31-1.99-.17-1.17,.07-2.31,.79-3.18,1.02-1.24,2.18-2.38,3.4-3.42,.7-.6,1.67-.48,2.46,.02,.54,.34,.87,.88,.85,1.78Z" style="fill: inherit;"/><path d="M216.17,206.16c-1.94,.09-3.66-1.44-3.79-3.38-.14-2.18,1.55-3.99,3.9-4.19,1.8-.15,3.55,1.54,3.63,3.51,.07,1.77-1.97,3.98-3.74,4.07Z" style="fill: inherit;"/><path d="M135.87,199.97c-1.85,.05-3.57-1.37-3.68-3.02-.14-2.17,1.71-4.46,3.62-4.48,1.95-.02,3.78,1.74,3.93,3.78,.14,1.87-1.72,3.66-3.87,3.72Z" style="fill: inherit;"/><path d="M341.95,143.09c-1.4-.09-2.88-.11-3.37-1.8-.5-1.71,.54-2.85,1.71-3.88,1.67-1.47,3.61-2.23,5.84-2.22,.88,0,1.34,.64,1.09,1.52-.44,1.6-1.15,3.06-2.44,4.15-.76,.65-1.55,1.27-2.32,1.91-.18,.09-.35,.2-.51,.32Z" style="fill: inherit;"/><path d="M372.3,163.43c-.14-.03-.64-.1-1.11-.26-.98-.33-1.35-1.6-.78-2.47,.43-.65,1.02-1.09,1.75-1.32,1.31-.42,2.65-.72,4.04-.73,1.81-.02,3.48-.35,4.62-1.97,.21-.29,.54-.52,.86-.7,.57-.32,1.2-.43,1.7,.11,.51,.54,.39,1.2-.02,1.7-.39,.46-.92,.84-1.44,1.17-2.01,1.24-4.05,2.45-6.07,3.67-.99,.6-2.06,.87-3.57,.81Z" style="fill: inherit;"/><path d="M250.25,326.14c-1.63-.64-3.5-.54-5.35-.68-.45-.03-.93-.34-1.3-.65-.93-.77-.72-2.56,.42-2.74,2.18-.35,4.31-.87,6.46-1.34,.34-.07,.74,.07,1.09,.18,1.26,.38,2.14,1.55,2.11,2.75-.03,.98-.95,1.97-2.15,2.28-.36,.09-.73,.12-1.27,.19Z" style="fill: inherit;"/><path d="M206.08,127.37c.07-2.36,1.66-4.29,3.99-4.84,1.09-.26,2.25,.43,2.58,1.64,.57,2.1,.08,3.98-1.44,5.53-1,1.02-2.4,1.29-3.44,.78-1.28-.64-1.71-1.75-1.7-3.1Z" style="fill: inherit;"/><path d="M258.9,355.23c-.09,.21-.16,.61-.39,.87-.5,.55-1.09,1.04-1.64,1.54-2.4,2.16-5.31,1.53-6.63-1.44-.4-.9-.19-2.06,.51-2.8,.67-.7,1.5-.87,2.41-.68,.24,.05,.52,.12,.69,.27,.97,.89,1.94,.72,3.11,.34,.99-.32,2.06,.78,1.94,1.89Z" style="fill: inherit;"/><path d="M363.4,72.17c-.04,.84-.53,1.61-1.26,1.62-1.81,.03-2.92,1.11-4.12,2.19-.66,.59-1.52,.8-2.41,.88-1.29,.11-2.17-.63-2.25-1.9-.08-1.22,.34-2.27,1.36-2.89,1.26-.77,2.63-1.38,3.98-2,.3-.14,.78-.12,1.07,.03,1.06,.58,1.96,1.49,3.3,1.47,.11,0,.22,.39,.34,.61Z" style="fill: inherit;"/><path d="M160.24,51.47c.03-.27,.04-.65,.11-1.01,.26-1.44,.88-2.69,2.37-3.09,1.45-.38,2.26,.76,3.09,1.69,.25,.28,.41,.63,.6,.95,.68,1.2,.71,2.38-.15,3.51-.9,1.18-2.65,1.63-4.07,1-1.25-.56-1.92-1.55-1.95-3.05Z" style="fill: inherit;"/><path d="M415.58,140.71c-.04,.24,0,.57-.15,.7-1.13,1.04-1.8,2.36-2.45,3.72-.6,1.26-1.6,2.23-2.63,3.15-1.06,.95-2.68,.81-3.69-.27-.57-.61-.61-1.35-.28-2.09,.63-1.44,1.75-2.45,3.11-3.13,1.78-.88,3.63-1.61,5.47-2.37,.14-.06,.4,.19,.6,.29Z" style="fill: inherit;"/><path d="M181.45,78.28c-.06-2.28,1.35-4.24,2.97-4.33,1.49-.08,2.88,1.54,3.09,3.64,.05,.49,.02,1-.06,1.48-.3,1.7-1.5,2.74-3.06,2.72-1.35-.02-2.42-.99-2.8-2.57-.09-.36-.11-.74-.14-.94Z" style="fill: inherit;"/><path d="M215.71,144.43c-1.83-.07-3.42-1.71-3.27-3.39,.17-1.94,1.84-3.62,3.62-3.65,1.76-.03,3.23,1.57,3.19,3.44-.05,2-1.69,3.68-3.53,3.6Z" style="fill: inherit;"/><path d="M354.49,178.72c1.01,.02,1.8,1.23,1.22,1.85-1.58,1.71-3.1,3.56-5.54,4.15-.24,.06-.49,.11-.73,.11-.78,.02-1.5-.19-1.98-.82-.57-.75-.56-1.63-.18-2.47,.38-.82,1.06-1.36,1.88-1.72,1.73-.76,3.58-.91,5.33-1.11Z" style="fill: inherit;"/><path d="M176.46,103.41c.07-1.34,2-2.95,3.45-2.88,1.73,.09,3.18,2.05,3.01,4.07-.14,1.66-1.65,2.96-3.32,2.86-1.64-.1-3.24-2.16-3.14-4.06Z" style="fill: inherit;"/><path d="M311.22,135.07c-1.09-.08-1.72-.75-1.77-1.53-.13-2.12,.98-3.63,2.71-4.5,1.36-.69,2.79-1.62,4.5-1.12,.92,1.85-.64,2.96-1.33,4.3-.57,1.12-1.5,1.99-2.69,2.48-.56,.23-1.18,.31-1.43,.37Z" style="fill: inherit;"/><path d="M386.29,179.24c-.02,.23,.02,.5-.06,.72-.75,2.07-3.43,3.89-5.58,3.82-1.56-.05-2.41-1.56-1.66-2.97,.94-1.79,4.08-3.32,6.13-2.92,.65,.13,1.06,.63,1.16,1.34Z" style="fill: inherit;"/><path d="M320.25,268.04c.08-.33,.15-.96,.39-1.53,.59-1.39,1.66-2.18,3.2-2.21,1.01-.02,1.96,.68,2.31,1.62,.53,1.42,.09,3.17-1.13,4.06-.49,.36-1.1,.61-1.7,.75-1.66,.39-2.98-.68-3.07-2.7Z" style="fill: inherit;"/><path d="M294.41,234.46c-.09,.26-.12,.68-.34,.94-1.06,1.26-2.38,2.18-3.95,2.72-1.01,.35-1.96,.13-2.84-.45-1.41-.94-1.53-2.39-.21-3.36,1.94-1.43,4.08-1.73,6.37-1.01,.49,.15,.82,.54,.97,1.16Z" style="fill: inherit;"/><path d="M293.36,217.36c1.01,.04,2.03,.09,2.54,1.16,.39,.83-.11,1.92-1.26,2.85-1.09,.88-2.32,1.43-3.75,1.37-1.53-.06-2.45-1.4-1.99-2.86,.57-1.77,2.03-2.6,4.46-2.52Z" style="fill: inherit;"/><path d="M266.95,215.46c-.12,.31-.17,.72-.4,.97-1.16,1.29-2.46,2.45-2.14,4.48,.07,.44-.52,.85-1.04,.93-.53,.09-1.07-.15-1.28-.6-.53-1.12-.91-2.28-1.79-3.23-.45-.48-.3-1.19,.09-1.74,1.25-1.78,4.04-2.44,6.05-1.43,.2,.1,.31,.37,.5,.62Z" style="fill: inherit;"/><path d="M294.64,39.92c-.86,.05-1.66-.62-1.84-1.51-.19-.91,.03-1.74,.58-2.45,1.16-1.5,2.72-2.51,4.39-3.35,.68-.34,1.62,.24,1.69,.96,.19,2.12-2.42,5.83-4.45,6.32-.12,.03-.25,.02-.37,.03Z" style="fill: inherit;"/><path d="M248.24,230.75c-.08,1.29-.8,2.24-2.02,2.83-1.2,.59-2.41,.64-3.55-.16-.67-.47-.94-1.17-.83-1.97,.28-1.97,2.46-3.52,4.41-3.18,1.16,.2,2.01,1.23,1.98,2.48Z" style="fill: inherit;"/><path d="M337.64,53.92c-1.23-.02-2.11-1.04-1.95-2.03,.06-.36,.15-.73,.31-1.06,.93-1.88,2.55-2.98,4.38-3.81,.68-.31,1.75,.32,1.66,.98-.32,2.28-1.21,4.27-3.22,5.56-.39,.25-.93,.29-1.18,.36Z" style="fill: inherit;"/><path d="M218.47,67.59c0,1.24-.38,2.37-1.48,3.17-1.22,.89-2.8,.46-3.4-.93-.75-1.74,.08-4.28,1.71-5.23,.74-.44,1.79-.21,2.34,.5,.55,.71,.79,1.53,.84,2.49Z" style="fill: inherit;"/><path d="M182.79,358.12c.03-.21,.06-.59,.16-.94,.35-1.26,1.51-2.13,2.73-2.06,1.34,.07,2.49,1.27,2.51,2.73,.02,1.61-.73,2.85-2.1,3.65-.71,.42-1.44,.25-2.06-.27-.91-.77-1.27-1.78-1.24-3.11Z" style="fill: inherit;"/><path d="M292.27,151.14c-1.1,.04-2.18-1.13-1.97-2.22,.39-1.97,1.57-3.36,3.38-4.16,.88-.39,2.1,.3,2.37,1.25,.57,2.01-1.68,5.06-3.79,5.14Z" style="fill: inherit;"/><path d="M227.4,216c-.74,.82-1.15,1.92-2.2,2.48-.63,.34-1.67,.07-1.9-.59-.46-1.31-.58-2.68-.19-4.01,.33-1.15,1.17-1.88,2.4-2.04,1.08-.14,1.94,.41,2.56,1.73,.2,.43,.18,.97,.26,1.45-.31,.33-.63,.66-.94,.99Z" style="fill: inherit;"/><path d="M163.62,138.85c0,1.61-.53,2.91-2.1,3.6-1.34,.59-2.85-.13-3.24-1.54-.64-2.25,1.23-4.58,3.6-4.49,1.07,.04,1.74,.97,1.75,2.43Z" style="fill: inherit;"/><path d="M435.61,112.66c-.06-1.48,.97-2.68,2.42-2.84,1.53-.17,2.91,1.04,3.02,2.64,.12,1.73-.88,3.12-2.38,3.28-1.59,.17-3-1.25-3.07-3.08Z" style="fill: inherit;"/><path d="M134.86,58.65c-2.05-.14-4.3-2.47-4.29-4.42,.01-1.12,1.19-2.09,2.28-1.88,2,.4,3.81,2.94,3.56,5.01-.09,.72-.84,1.34-1.56,1.29Z" style="fill: inherit;"/><path d="M267.82,190.49c-1.1,.04-2.02-.52-2.38-1.46-.36-.94-.12-2.05,.7-2.71,1.2-.97,2.55-1.57,4.15-1.23,1.05,.22,1.66,1.28,1.31,2.28-.69,1.96-2,3.05-3.78,3.12Z" style="fill: inherit;"/><path d="M235.7,128.22c.1-1.67,.98-2.95,2.13-3.07,1.23-.14,2.25,.77,2.82,2.46,.43,1.26,.34,2.44-.61,3.43-.63,.66-1.91,.79-2.76,.29-1.19-.69-1.65-1.77-1.58-3.11Z" style="fill: inherit;"/><path d="M317.25,97.72c.11-.29,.25-.91,.56-1.42,.82-1.33,2.12-2.07,3.53-2.61,.97-.38,2.15,.6,1.89,1.62-.46,1.85-1.24,3.53-3.04,4.48-1.33,.7-2.96-.29-2.95-2.06Z" style="fill: inherit;"/><path d="M406.89,252.08c-.06,1.24-1.54,2.61-3.09,2.85-1.32,.21-2.82-.76-3.17-2.07-.17-.63-.06-1.25,.36-1.77,1.16-1.44,3.58-1.73,5.08-.61,.52,.39,.82,.92,.82,1.6Z" style="fill: inherit;"/><path d="M359.46,87.05c-.28,1.37-.92,2.6-1.88,3.56-1.05,1.04-2.2,1.98-3.12,3.17-.19,.25-.64,.34-.98,.43-.56,.14-1.39-.57-1.21-1.07,1.13-3.22,3.42-5.36,6.47-6.75,.31-.14,.76,.31,.72,.67Z" style="fill: inherit;"/><path d="M266.16,123.57c-.33,1.19-.99,2.6-2.62,3.29-1.17,.5-2.48,.03-3.2-1.11-.36-.58-.36-1.22,.06-1.72,1.06-1.25,2.36-2.16,4.03-2.37,.91-.12,1.8,.66,1.73,1.91Z" style="fill: inherit;"/><path d="M393.15,95.79c-.91,2.06-1.78,4.23-4.06,5.38-.69,.35-1.44,.4-2.04-.22-.59-.6-.63-1.37-.26-2.05,1.18-2.22,3.08-3.46,5.54-3.86,.12-.02,.29-.03,.36,.04,.15,.17,.26,.38,.47,.72Z" style="fill: inherit;"/><path d="M256.37,26.31c-1.12,.06-2.14-1.08-1.88-2.22,.4-1.77,1.49-3.09,3.04-4,.6-.35,1.65,.07,1.89,.69,.69,1.75-.91,5.03-2.69,5.49-.12,.03-.24,.03-.37,.04Z" style="fill: inherit;"/><path d="M245.01,270.61c.05-1.43,1.65-2.78,3.11-2.62,1.46,.16,2.54,1.44,2.41,2.84-.13,1.42-1.41,2.5-2.84,2.4-1.48-.1-2.73-1.31-2.68-2.62Z" style="fill: inherit;"/><path d="M101.02,185.69c-.65,.02-1.21-.18-1.69-.61-.98-.88-1.22-2.05-.72-3.36,.44-1.13,1.24-1.83,2.1-1.8,1.09,.03,1.86,.64,2.39,1.52,.97,1.62-.28,4.12-2.09,4.26Z" style="fill: inherit;"/><path d="M494.51,143.44c-.39-.09-.76-.15-1.11-.26-.96-.28-1.23-1.36-.55-2.07,.81-.85,1.83-1.3,2.94-1.57,1.1-.28,2.22-.46,3.34-.23,.31,.06,.68,.37,.81,.66,.12,.28,.09,.84-.1,1.01-1.53,1.34-3.23,2.33-5.31,2.47Z" style="fill: inherit;"/><path d="M175.64,49.98c.08-.94,.47-1.68,1.11-2.31,.86-.83,1.92-1.13,2.68-.67,.94,.57,1.33,1.46,1.27,2.52-.07,1.21-.68,2.1-1.77,2.64-.7,.35-1.44,.37-2.13-.03-.83-.48-1.15-1.25-1.17-2.14Z" style="fill: inherit;"/><path d="M417,218.11c.29,.07,.91,.16,1.48,.37,.63,.23,.98,1.28,.72,1.92-.64,1.58-3.07,2.66-4.69,2.07-1.32-.48-1.69-1.93-.78-3.04,.77-.93,1.54-1.28,3.27-1.33Z" style="fill: inherit;"/><path d="M356.43,99.15c.1,2.39-.81,4.09-2.33,5.44-.56,.5-1.19,.9-1.99,.95-.53,.03-1-.15-1.31-.56-.32-.41-.38-.93-.2-1.42,.31-.86,.94-1.49,1.68-1.95,1.36-.86,2.76-1.64,4.15-2.46Z" style="fill: inherit;"/><path d="M114.95,131.06c.06-1.47,1.34-2.76,2.59-2.62,1.35,.16,2.37,1.43,2.33,2.91-.04,1.44-1.3,2.5-2.77,2.33-1.25-.15-2.21-1.31-2.15-2.61Z" style="fill: inherit;"/><path d="M293.89,244.61c.06,1.91-2.05,3.43-3.88,2.8-.76-.26-1.33-1.24-1.22-2.1,.25-2.03,2.35-3.15,4.21-2.22,.6,.3,.87,.86,.89,1.53Z" style="fill: inherit;"/><path d="M280.82,284.81c-.48-.1-.86-.13-1.21-.25-.77-.26-1.26-.8-1.37-1.61-.12-.82,.27-1.46,.91-1.92,.86-.62,1.83-.73,2.84-.41,.91,.29,1.58,1.06,1.58,1.87,0,.99-.55,1.64-1.4,2.01-.44,.19-.96,.22-1.34,.3Z" style="fill: inherit;"/><path d="M257.33,313.51c.11-.81,.53-1.44,1.31-1.65,.58-.16,1.24-.2,1.82-.1,1.33,.23,2.27,1.27,2.12,2.2-.2,1.24-1.77,2.36-3.06,2.19-1.2-.16-2.28-1.46-2.2-2.63Z" style="fill: inherit;"/><path d="M271.2,297.11c-.04,1.45-1.2,2.5-2.57,2.63-1.19,.12-2.41-.65-2.62-1.67-.2-.99,.32-1.7,1.02-2.26,.83-.66,1.79-.94,2.81-.46,.86,.4,1.28,1.14,1.36,1.76Z" style="fill: inherit;"/><path d="M309.51,178.52c.5-1,1.5-1.3,2.42-1.7,.36,.09,.73,.14,1.07,.27,2.02,.78,2.3,2.16,.7,3.46-.8,.65-1.7,1.03-2.73,.67-1.28-.45-1.38-1.59-1.46-2.71Z" style="fill: inherit;"/><path d="M332.43,90.67c-.17-1.17,.39-1.98,1.1-2.69,.89-.88,1.91-1.6,3.22-1.51,.67,.04,.39,2.37-.49,3.7-.48,.72-1.09,1.32-1.94,1.62-.85,.3-1.83-.3-1.89-1.11Z" style="fill: inherit;"/><path d="M80.4,89.34c-.08,1.18-1.13,2.15-2.22,2.06-1.3-.11-2.48-1.3-2.4-2.41,.1-1.28,1.32-2.39,2.5-2.27,1.26,.13,2.21,1.3,2.12,2.62Z" style="fill: inherit;"/><path d="M124.73,158.49c-.97,.1-2.01-.89-2.21-2.09-.22-1.35,.57-2.66,1.72-2.86,1.22-.21,2.64,1.04,2.76,2.42,.09,1.08-1.1,2.4-2.27,2.52Z" style="fill: inherit;"/><path d="M331.08,331.8c0,.19,.02,.32,0,.44-.21,1.03-1.62,1.88-2.97,1.81-.99-.05-1.87-.91-1.95-1.94-.02-.24,0-.5,.08-.74,.28-.93,1.31-1.54,2.37-1.44,1.25,.12,2.36,.98,2.48,1.87Z" style="fill: inherit;"/><path d="M237.36,51.74c-.28,.56-.56,1.13-.84,1.69-.1,.07-.21,.14-.31,.21-.86,.6-1.79,1.08-2.71,.23-.82-.75-.8-1.79-.47-2.78,.29-.9,.94-1.48,1.87-1.64,1-.17,1.65,.38,2.06,1.25,.16,.34,.27,.7,.41,1.05Z" style="fill: inherit;"/><path d="M405.31,127.07c.26,.05,.64,.08,.98,.21,.59,.23,1.09,.58,1.18,1.29,.08,.55-.2,.99-.57,1.3-.97,.83-2.06,1.37-3.41,1.04-1.22-.29-1.71-1.69-.89-2.6,.73-.81,1.57-1.22,2.7-1.25Z" style="fill: inherit;"/><path d="M342.14,176.12c-.02,2.01-2.48,3.67-4.26,2.86-.68-.31-1.03-1.24-.71-1.9,.69-1.41,2.41-2.29,4.06-2.02,.56,.09,.81,.52,.91,1.06Z" style="fill: inherit;"/><path d="M157.75,299.28c-1.1-.05-2.03-1.08-2-2.24,.03-1.29,1.16-2.24,2.51-2.11,1.01,.1,1.87,1.01,1.85,1.97-.03,1.27-1.18,2.43-2.36,2.38Z" style="fill: inherit;"/><path d="M305.93,254.48c.22-1.62,1.21-2.92,1.84-4.36,.18-.42,1.04-.44,1.27-.07,.19,.31,.32,.66,.49,.98,1.33,2.55,.94,3.44-1.85,4.1-.35,.08-.73,.02-1.1,.02-.22-.22-.44-.44-.66-.67Z" style="fill: inherit;"/><path d="M311.06,315.88c-1.26,.02-2.34-.77-2.48-1.82-.14-1.05,.92-2.13,2.11-2.16,1.18-.03,2.18,.89,2.24,2.06,.05,1.03-.79,1.89-1.87,1.91Z" style="fill: inherit;"/><path d="M40.52,177.04c-1.07-.05-2-1.08-2.03-2.23-.02-1.06,1.12-2,2.26-1.86,1.07,.13,1.84,.96,1.81,1.95-.04,1.21-.98,2.19-2.05,2.14Z" style="fill: inherit;"/><path d="M176.83,173.45c-.84,.05-1.7-.71-1.75-1.55-.07-1.21,.93-2.22,2.33-2.37,.87-.09,1.76,.67,1.74,1.5-.03,1.25-1.08,2.35-2.32,2.42Z" style="fill: inherit;"/><path d="M105.9,281.16c-.03,1.21-.98,2.09-2.16,1.99-1.07-.09-1.91-.86-1.99-1.83-.1-1.06,.89-2.14,2.02-2.21,1.13-.07,2.16,.91,2.14,2.04Z" style="fill: inherit;"/><path d="M227.4,216c.31-.33,.63-.66,.94-.99,.92-.36,1.83-.77,2.86-.44,.7,.22,1.18,1.07,.95,1.76-.64,1.91-2.65,2.42-4.07,.98-.33-.33-.46-.86-.68-1.3Z" style="fill: inherit;"/><path d="M334.5,190.92c.26,.06,.65,.08,.98,.22,.39,.16,.55,.62,.32,.9-1.14,1.39-2.54,2.36-4.44,2.17-.32-.03-.71-.32-.88-.6-.27-.45-.16-.95,.2-1.36,1-1.12,2.32-1.34,3.82-1.33Z" style="fill: inherit;"/><path d="M196.26,188.63c.11,1.33-.79,2.46-2.08,2.62-.97,.12-1.93-.77-1.94-1.81-.01-1.19,1.14-2.19,2.52-2.19,.75,0,1.44,.63,1.5,1.38Z" style="fill: inherit;"/><path d="M435.71,167.81c-.63-.02-1.15-.63-1.05-1.26,.3-1.99,1.46-2.5,3.56-1.56,.46,.21,.91,.54,.86,1.07-.03,.31-.33,.68-.61,.87-1.05,.74-1.68,.9-2.76,.87Z" style="fill: inherit;"/><path d="M245.85,340.79c-.06,.9-1.06,1.63-2.18,1.58-1.05-.04-1.95-.97-1.84-1.9,.11-.99,1.12-1.74,2.12-1.6,1.09,.15,1.95,1.03,1.89,1.92Z" style="fill: inherit;"/><path d="M176.45,220.49c-1.01,.09-2.1-.75-2.12-1.63-.03-1,1.09-2,2.25-2.02,.83-.01,1.67,.81,1.68,1.65,.02,.99-.81,1.91-1.81,2Z" style="fill: inherit;"/><path d="M239.45,308.32c-.83-.02-1.53-.55-1.62-1.27-.12-.87,.35-1.43,1.07-1.78,1.04-.51,2.07-.38,2.76,.35,.36,.38,.47,.87,.26,1.38-.38,.95-1.21,1.19-2.1,1.32-.12,.02-.25,0-.37,0Z" style="fill: inherit;"/><path d="M255.16,421.7c-.02,.84-.9,1.62-1.73,1.53-1.12-.12-2.01-1.2-1.9-2.3,.07-.67,.81-1.3,1.54-1.3,1.17,0,2.12,.94,2.09,2.07Z" style="fill: inherit;"/><path d="M136.84,203.83c-.07,.32-.12,.7-.24,1.05-.25,.73,.37,2.05-.95,2.05-1.1,0-.9-1.31-1.26-2.03-.21-.43-.31-.93-.37-1.42-.08-.72,.61-1.4,1.39-1.43,.76-.03,1.46,.63,1.46,1.37,0,.12-.02,.25-.03,.41Z" style="fill: inherit;"/><path d="M423.95,124.69c-.09,1.39-1.62,3.21-2.93,3.4-.51,.07-.95-.2-1.23-.65-.28-.46-.27-.97,.03-1.39,.82-1.16,2.02-1.75,3.38-2.01,.38-.07,.67,.24,.75,.67Z" style="fill: inherit;"/><path d="M378.27,59.15c-.38,1.26-.79,2.56-2.04,3.31-.43,.26-.95,.26-1.39-.03-.48-.32-.52-.85-.34-1.32,.51-1.31,1.42-2.28,2.75-2.78,.18-.07,.5,.02,.67,.15,.17,.13,.23,.4,.36,.66Z" style="fill: inherit;"/><path d="M440.8,245.31c.19,.05,.56,.12,.9,.24,.66,.23,.92,1.33,.46,1.89-.82,1-2.09,1.33-3.34,.84-.49-.19-.82-.57-.89-1.09-.07-.53,.2-.94,.6-1.28,.61-.51,1.32-.63,2.26-.6Z" style="fill: inherit;"/><path d="M411.49,90.97c.47-.16,.94-.35,1.42-.48,.88-.24,1.99-1.3,2.61-.1,.53,1.02-.85,1.63-1.44,2.38-.15,.19-.37,.33-.59,.46-.64,.39-1.34,.9-2.07,.4-1.01-.7-.33-1.55-.03-2.34,.04-.12,.1-.23,.15-.35l-.05,.03Z" style="fill: inherit;"/><path d="M116.96,36.59c-.01-.92,.26-1.45,.81-1.79,.58-.36,1.2-.29,1.7,.14,.35,.3,.66,.73,.84,1.16,.35,.82-.07,1.75-.89,2.13-.8,.37-1.44,.06-1.92-.57-.28-.37-.43-.85-.54-1.07Z" style="fill: inherit;"/><path d="M203.44,66.01c.05-.2,.09-.58,.25-.9,.35-.72,.94-1.18,1.77-1.02,.67,.13,1,.68,1.1,1.33,.05,.36,.06,.74,0,1.1-.16,.97-.96,1.65-1.75,1.57-.8-.09-1.4-.93-1.36-2.07Z" style="fill: inherit;"/><path d="M329.56,274.1c-.77-.02-1.48-.68-1.51-1.39-.05-1.14,1.05-2.13,2.24-1.96,.8,.11,1.41,.55,1.54,1.41,.16,1.04-.96,1.99-2.26,1.95Z" style="fill: inherit;"/><path d="M394.17,145.86c.1,1.46-1.52,2.84-2.92,2.49-.83-.21-1.31-1.37-.84-2.06,.67-.99,1.59-1.51,2.79-1.39,.54,.05,.83,.46,.97,.96Z" style="fill: inherit;"/><path d="M188.5,178.89c-.82-.08-1.47-.93-1.4-1.84,.08-1.04,1.01-1.76,2.04-1.57,.74,.14,1.3,.84,1.24,1.57-.1,1.08-.95,1.93-1.87,1.84Z" style="fill: inherit;"/><path d="M380.98,138.16c-.52,.02-1.11-.82-.95-1.35,.41-1.4,1.51-2.31,2.93-2.37,.42-.02,.74,.29,.73,.68-.02,1.24-1.1,2.57-2.34,2.99-.11,.04-.24,.03-.37,.04Z" style="fill: inherit;"/><path d="M395.28,198.51c-1.39,1.65-2.55,2.26-3.91,2.52-.49,.09-.98-.05-1.29-.5-.25-.38,.16-1.25,.68-1.52,1.25-.67,2.56-.59,4.51-.5Z" style="fill: inherit;"/><path d="M247.01,362.73c.03,.91-.74,1.7-1.6,1.63-.87-.07-1.49-.78-1.54-1.76-.04-.75,.54-1.52,1.22-1.62,.99-.15,1.89,.67,1.93,1.75Z" style="fill: inherit;"/><path d="M338.81,117.3c-.22,.35-.35,.73-.62,.92-.95,.69-1.77,.64-2.72-.08-.52-.39-.55-1.28-.06-1.6,.9-.59,1.85-.77,2.79-.16,.27,.17,.39,.58,.6,.92Z" style="fill: inherit;"/><path d="M205.96,239.29c.06-.85,.87-1.57,1.76-1.57,.88,0,1.68,.82,1.61,1.68-.07,.86-.89,1.6-1.76,1.58-.88-.02-1.68-.85-1.62-1.69Z" style="fill: inherit;"/><path d="M145.7,332.73c-.75,0-1.38-.61-1.44-1.37-.06-.89,.68-1.64,1.59-1.61,.75,.03,1.42,.65,1.46,1.36,.05,.84-.73,1.62-1.61,1.61Z" style="fill: inherit;"/><path d="M384.18,140.38c-.5-.14-.9-.43-.99-.95-.22-1.31,1.39-2.68,2.58-2.18,.29,.12,.6,.5,.65,.8,.17,1.2-1.02,2.39-2.23,2.33Z" style="fill: inherit;"/><path d="M246.7,4.74c-.74-.02-1.16-.46-1.27-1.13-.19-1.1,.53-2.02,1.6-2.08,.74-.04,1.18,.4,1.27,1.09,.15,1.13-.57,2.04-1.6,2.11Z" style="fill: inherit;"/><path d="M313.18,8.17c-.91,.03-1.76-.68-1.81-1.52-.04-.67,.64-1.33,1.46-1.43,.96-.12,1.73,.54,1.73,1.48,0,.79-.61,1.44-1.38,1.46Z" style="fill: inherit;"/><path d="M227.47,196.34c-.77-.06-1.21-.49-1.29-1.13-.12-.93,.87-1.83,1.88-1.75,.68,.05,1.13,.48,1.23,1.13,.14,.91-.82,1.76-1.81,1.75Z" style="fill: inherit;"/><path d="M169.65,344.44c-.76,.09-1.41-.48-1.52-1.32-.11-.85,.37-1.54,1.13-1.65,.94-.13,1.79,.56,1.79,1.46,0,.75-.63,1.42-1.4,1.51Z" style="fill: inherit;"/><path d="M252.02,314.61c.01-.89,.78-1.53,1.75-1.47,.81,.05,1.43,.7,1.37,1.43-.08,.89-.88,1.58-1.76,1.52-.75-.05-1.37-.73-1.36-1.48Z" style="fill: inherit;"/><path d="M232.4,157.91c-.78,0-1.42-.65-1.4-1.41,.03-.89,.74-1.59,1.67-1.64,.74-.04,1.4,.64,1.37,1.42-.03,.94-.73,1.63-1.64,1.63Z" style="fill: inherit;"/><path d="M192.37,237.07c-.03-.82,.76-1.56,1.71-1.6,.75-.04,1.56,.56,1.65,1.21,.13,.92-.87,1.86-1.91,1.81-.74-.04-1.43-.71-1.45-1.42Z" style="fill: inherit;"/><path d="M454.69,49.37c-.73-.03-1.3-.67-1.33-1.47-.03-.8,.56-1.45,1.31-1.44,.91,0,1.65,.79,1.56,1.65-.08,.71-.79,1.3-1.54,1.27Z" style="fill: inherit;"/><path d="M220.77,280.26c-.74,0-1.43-.65-1.44-1.38-.01-.86,.82-1.7,1.63-1.64,.66,.05,1.25,.84,1.2,1.6-.05,.81-.65,1.42-1.4,1.42Z" style="fill: inherit;"/><path d="M286.83,179.5c-.15,1.01-1.12,1.77-2.1,1.65-.56-.07-1.06-.78-.95-1.36,.18-.98,1.14-1.58,2.23-1.35,.56,.11,.77,.54,.82,1.07Z" style="fill: inherit;"/><path d="M212.99,312.16c-.7-.07-1.31-.79-1.3-1.53,.01-.89,.91-1.65,1.71-1.45,.69,.17,1.19,.95,1.09,1.68-.11,.76-.82,1.37-1.5,1.3Z" style="fill: inherit;"/><path d="M384.98,106.92c-.55,.09-1.2-.55-1.19-1.13,.02-.81,.45-1.37,1.07-1.83,.42-.31,.9-.41,1.36-.14,.51,.3,.49,.84,.38,1.31-.21,.87-.62,1.6-1.61,1.78Z" style="fill: inherit;"/><path d="M238.04,326.27c-.76-.02-1.41-.61-1.47-1.34-.07-.86,.77-1.68,1.6-1.56,.69,.1,1.28,.82,1.28,1.54,0,.73-.67,1.37-1.42,1.35Z" style="fill: inherit;"/><path d="M147.67,288.62c0-.77,.69-1.45,1.44-1.4,.75,.05,1.44,.74,1.43,1.45,0,.71-.73,1.39-1.48,1.41-.71,.02-1.39-.7-1.39-1.46Z" style="fill: inherit;"/><path d="M159.47,340.99c-.73-.05-1.33-.76-1.27-1.51,.07-.9,.92-1.61,1.77-1.41,.65,.15,1.05,.61,1.08,1.3,.04,.93-.7,1.68-1.58,1.62Z" style="fill: inherit;"/><path d="M207.38,120.04c.09-.79,.75-1.38,1.49-1.33,.75,.05,1.38,.77,1.29,1.5-.09,.74-.76,1.33-1.52,1.33-.74,0-1.36-.74-1.27-1.5Z" style="fill: inherit;"/><path d="M328.92,70.64c-.05,.76-.75,1.36-1.52,1.3-.79-.06-1.48-.72-1.46-1.4,.02-.92,.86-1.63,1.74-1.49,.76,.12,1.3,.81,1.24,1.6Z" style="fill: inherit;"/><path d="M205.64,195.7c-.01,.73-.64,1.37-1.42,1.33-.72-.04-1.14-.48-1.18-1.18-.05-.78,.63-1.44,1.42-1.38,.7,.05,1.14,.43,1.18,1.24Z" style="fill: inherit;"/><path d="M407.91,265.57c.42,.16,.84,.2,1.08,.44,.22,.22,.41,.69,.32,.96-.38,1.22-2.13,1.53-3.02,.58-.4-.43-.27-1.38,.26-1.6,.45-.18,.94-.26,1.36-.37Z" style="fill: inherit;"/><path d="M292.7,85.02c-.61,.06-1-.2-1.16-.71-.34-1.07,.2-2.07,1.2-2.23,.55-.09,.94,.21,1.1,.72,.33,1.08-.21,2.06-1.14,2.22Z" style="fill: inherit;"/><path d="M232.55,165.34c.04-.99,.65-1.7,1.5-1.74,.57-.03,1.12,.57,1.1,1.2-.03,1-.63,1.69-1.5,1.72-.6,.02-1.13-.55-1.1-1.19Z" style="fill: inherit;"/><path d="M306.12,159.64c-.72-.07-1.12-.48-1.19-1.18-.09-.95,.57-1.58,1.61-1.59,.68,0,1.23,.5,1.21,1.13-.03,.95-.71,1.65-1.63,1.65Z" style="fill: inherit;"/><path d="M211.04,335.89c-.88-.07-1.53-.97-1.31-1.9,.16-.66,.59-1.09,1.33-1.08,.75,.01,1.33,.68,1.34,1.52,0,.84-.62,1.53-1.35,1.47Z" style="fill: inherit;"/><path d="M264.05,120.68c-.57,0-1.14-.68-1.06-1.26,.12-.85,.67-1.3,1.49-1.35,.52-.03,.95,.26,1.01,.84,.1,.94-.58,1.77-1.44,1.76Z" style="fill: inherit;"/><path d="M371.93,139.52c.06,.93-.67,1.72-1.51,1.59-.54-.09-.81-.52-.81-1.03,0-.75,.62-1.37,1.36-1.43,.44-.04,.94,.41,.97,.87Z" style="fill: inherit;"/><path d="M150.46,320.63c-.64-.02-1.23-.59-1.24-1.36,0-.74,.72-1.36,1.48-1.25,.74,.11,1.36,.84,1.22,1.56-.13,.66-.57,1.06-1.46,1.05Z" style="fill: inherit;"/><path d="M296.86,265.98c-.73,.02-1.19-.36-1.36-1.03-.17-.7,.49-1.41,1.31-1.49,.65-.07,1.32,.42,1.37,.99,.06,.73-.58,1.47-1.33,1.53Z" style="fill: inherit;"/><path d="M324.79,377.46c-.05,.69-.38,1.16-1.08,1.27-.75,.12-1.47-.46-1.54-1.22-.07-.72,.6-1.52,1.28-1.53,.69-.01,1.34,.71,1.34,1.48Z" style="fill: inherit;"/><path d="M271.45,307.97c-.03,.72-.76,1.33-1.51,1.26-.59-.05-1.12-.74-.99-1.31,.16-.68,.61-1.02,1.3-1.04,.69-.02,1.22,.46,1.19,1.09Z" style="fill: inherit;"/><path d="M362.7,1.05c.08-.66,.71-1.16,1.34-1.03,.68,.14,1.11,.54,1.05,1.29-.05,.64-.68,1.13-1.32,.99-.66-.15-1.09-.55-1.07-1.25Z" style="fill: inherit;"/><path d="M358.35,175.89c.09,.7-.44,1.42-1.18,1.61-.57,.15-1.27-.32-1.37-.9-.11-.73,.41-1.45,1.16-1.6,.59-.12,1.32,.35,1.39,.89Z" style="fill: inherit;"/><path d="M198.85,203.43c-.06,.78-.75,1.44-1.48,1.35-.71-.09-1.1-.56-1.1-1.26,0-.77,.74-1.41,1.48-1.37,.6,.03,1.14,.67,1.1,1.28Z" style="fill: inherit;"/><path d="M345.86,153.05c-.54-.03-.93-.27-1.04-.81-.18-.87,.57-1.81,1.39-1.7,.53,.07,.84,.49,.88,1,.07,.78-.52,1.46-1.23,1.5Z" style="fill: inherit;"/><path d="M307.92,114.93c.07,.86-.71,1.76-1.55,1.7-.54-.03-.9-.4-.99-.93-.15-.87,.61-1.7,1.53-1.66,.54,.02,.89,.35,1.01,.89Z" style="fill: inherit;"/><path d="M305.93,254.48c.22,.22,.44,.45,.66,.67-.48,.87-.83,1.91-2.06,1.94-.32,0-.78-.2-.94-.46-.15-.25-.11-.76,.05-1.03,.5-.84,1.43-.93,2.28-1.12Z" style="fill: inherit;"/><path d="M398.78,378.82c-.04,.69-.32,1.23-1.07,1.27-.77,.04-1.09-.5-1.14-1.18-.05-.71,.32-1.18,1.05-1.26,.63-.07,1.14,.48,1.15,1.18Z" style="fill: inherit;"/><path d="M389.69,259.3c-.71,.04-1.14-.29-1.23-.99-.09-.65,.4-1.18,1.06-1.16,.53,.01,.93,.28,1.02,.82,.12,.67-.14,1.16-.85,1.34Z" style="fill: inherit;"/><path d="M385.05,144.27c.03,1.08-1.25,2.08-2.22,1.73-.11-.04-.21-.13-.27-.23-.36-.64-.1-1.14,.4-1.56,.74-.62,1.57-.71,1.94-.24,.07,.09,.1,.21,.14,.31Z" style="fill: inherit;"/><path d="M252.99,244.95c-.67-.13-1.01-.56-.95-1.26,.06-.63,.69-1.04,1.31-.88,.53,.14,.79,.52,.8,1.05,.02,.67-.5,1.16-1.17,1.09Z" style="fill: inherit;"/><path d="M253.14,209.07c-.58-.09-1.02-.81-.87-1.42,.21-.79,.99-1.29,1.67-1.04,.53,.19,.75,.62,.7,1.17-.08,.8-.79,1.39-1.51,1.29Z" style="fill: inherit;"/><path d="M255.17,364.74c-.67-.13-1.08-.78-.83-1.4,.21-.54,.65-.75,1.2-.68,.65,.09,1.07,.8,.83,1.41-.21,.53-.62,.75-1.2,.67Z" style="fill: inherit;"/><path d="M262.18,268.47c-.1,.79-.53,1.16-1.2,1.21-.73,.05-1.41-.63-1.4-1.34,.01-.71,.74-1.38,1.44-1.32,.72,.06,1.24,.76,1.17,1.45Z" style="fill: inherit;"/><path d="M459.25,90.65c-.04-.71,.38-1.1,.97-1.34,.46-.19,.96-.26,1.32,.17,.13,.15,.2,.46,.14,.64-.28,.85-1.19,1.33-2,1.05-.18-.06-.29-.34-.44-.53Z" style="fill: inherit;"/><path d="M362.03,53.12c-.55-.1-.89-.46-.87-.99,.05-.93,.91-1.68,1.68-1.52,.39,.08,.61,.38,.63,.78,.05,.97-.58,1.71-1.45,1.73Z" style="fill: inherit;"/><path d="M460.07,57.92c-.07,.7-.68,1.22-1.28,1.04-.7-.21-.99-.75-.86-1.44,.1-.56,.53-.83,1.08-.85,.66-.02,1.13,.55,1.06,1.26Z" style="fill: inherit;"/><path d="M187.98,313.66c-.68-.22-.94-.75-.87-1.43,.07-.65,.77-1.05,1.4-.84,.56,.19,.76,.62,.71,1.17-.06,.72-.64,1.23-1.25,1.1Z" style="fill: inherit;"/><path d="M430.89,119.36c-.53-.02-.98-.23-1.06-.79-.1-.69,.52-1.35,1.34-1.42,.52-.04,1,.14,1.05,.75,.06,.75-.52,1.35-1.33,1.46Z" style="fill: inherit;"/><path d="M369.75,40.58c-.61-.01-1-.3-1.04-.84-.06-.69,.31-1.2,.99-1.3,.53-.08,.98,.28,1.01,.81,.04,.66-.34,1.14-.96,1.33Z" style="fill: inherit;"/><path d="M349.69,258.69c.31,.17,.72,.26,.9,.51,.34,.49,.03,.94-.38,1.24-.28,.2-.65,.35-.99,.37-.52,.03-.98-.27-1.01-.81-.02-.3,.2-.7,.45-.91,.25-.22,.65-.26,1.04-.4Z" style="fill: inherit;"/><path d="M174.47,307.68c.7,.07,1.2,.67,1.06,1.26-.15,.66-.59,1.02-1.28,1-.59-.02-1.12-.69-.98-1.25,.16-.64,.55-1.04,1.2-1.01Z" style="fill: inherit;"/><path d="M293.61,195.08c-.61-.09-1-.74-.8-1.38,.15-.51,.51-.82,1.05-.84,.63-.03,1.12,.56,1.03,1.22-.09,.66-.65,1.1-1.28,1.01Z" style="fill: inherit;"/><path d="M274.82,111.46c-.07,.67-.41,1.15-1.14,1.22-.56,.05-.98-.22-1.01-.83-.04-.82,.65-1.37,1.49-1.2,.41,.08,.62,.37,.66,.81Z" style="fill: inherit;"/><path d="M234.9,314.9c-.69-.16-1.03-.6-.92-1.3,.09-.59,.82-1.02,1.38-.83,.51,.17,.76,.57,.75,1.11-.02,.67-.56,1.12-1.2,1.02Z" style="fill: inherit;"/><path d="M338.65,270.51c.14-.67,.58-1.03,1.26-.96,.53,.06,.86,.47,.77,1-.11,.67-.63,1.05-1.27,1.01-.52-.03-.75-.51-.76-1.06Z" style="fill: inherit;"/><path d="M56.36,241.24c.54,.08,.9,.37,.93,.94,.03,.64-.61,1.1-1.28,.93-.56-.14-.82-.54-.73-1.11,.08-.52,.53-.82,1.09-.77Z" style="fill: inherit;"/><path d="M43.54,255.63c.08-.53,.36-.89,.92-.91,.62-.03,1.13,.62,.94,1.22-.16,.51-.55,.76-1.09,.72-.5-.04-.83-.49-.77-1.02Z" style="fill: inherit;"/><path d="M327.12,52.04c-.56-.16-.77-.55-.66-1.09,.14-.65,.52-1.12,1.25-1.02,.56,.08,.81,.52,.66,1.07-.16,.62-.51,1.09-1.26,1.04Z" style="fill: inherit;"/><path d="M457.93,152.5c-.4-.08-.72-.28-.78-.68-.11-.72,.64-1.34,1.47-1.2,.4,.07,.67,.36,.6,.8-.11,.72-.63,1-1.29,1.08Z" style="fill: inherit;"/><path d="M470.03,68.79c-.75-.83-.68-1.6-.71-2.32-.04-1.08,.5-2.03,.88-1.73,.6,.48,.33,1.13,.28,1.7-.07,.71,.27,1.49-.46,2.35Z" style="fill: inherit;"/><path d="M324.17,164.63c-.22-.08-.53-.08-.64-.24-.4-.58-.13-1.5,.57-1.88,.36-.2,.74-.03,.89,.34,.32,.76-.06,1.52-.82,1.77Z" style="fill: inherit;"/><path d="M322.5,173.04c.36,.05,.75,.02,1.08,.16,.94,.39,1.09,1.09,.39,1.6-.29,.21-.63,.39-.96,.52-.34,.13-.75,.16-.96-.2-.1-.17-.06-.47,0-.7,.13-.47,.31-.93,.46-1.39,0,0,0,0,0,0Z" style="fill: inherit;"/><path d="M353.78,49.72c-.44-.05-.75-.27-.78-.68-.04-.68,.29-1.18,.96-1.39,.45-.14,1,.36,.94,.84-.08,.68-.46,1.11-1.13,1.23Z" style="fill: inherit;"/><path d="M366.43,160.33c-.59-.08-.89-.43-.88-.98,.01-.75,.53-1.05,1.19-1.05,.56,0,.89,.38,.85,.94-.05,.69-.48,1.07-1.16,1.09Z" style="fill: inherit;"/><path d="M422.9,280.42c-.68-.14-1.14-.5-1.1-1.25,.03-.61,.73-1.01,1.39-.86,.67,.16,1.08,.8,.88,1.39-.19,.54-.62,.73-1.17,.71Z" style="fill: inherit;"/><path d="M300.37,396.97c-.73-.15-1.18-.95-.88-1.69,.21-.51,.65-.73,1.18-.57,.69,.22,.89,.8,.77,1.46-.1,.55-.46,.84-1.07,.79Z" style="fill: inherit;"/><path d="M266.11,176c-.65-.03-1.12-.6-1.01-1.22,.1-.55,.48-.82,1-.88,.59-.07,1.24,.49,1.25,1.05,0,.55-.62,1.09-1.24,1.05Z" style="fill: inherit;"/><path d="M385.6,265.16c.11-.68,.5-1.07,1.21-1.04,.6,.03,1.16,.72,.99,1.25-.21,.65-.73,.93-1.39,.81-.54-.09-.79-.47-.8-1.02Z" style="fill: inherit;"/><path d="M398.58,280.76c.11-.56,.46-.87,1.02-.81,.58,.06,.87,.47,.8,1.04-.07,.56-.46,.87-1.02,.81-.6-.06-.83-.46-.81-1.04Z" style="fill: inherit;"/><path d="M220.26,100.71c-.39-.12-.66-.37-.68-.76-.03-.76,.84-1.48,1.45-1.15,.24,.13,.46,.6,.43,.88-.07,.66-.48,1.08-1.2,1.03Z" style="fill: inherit;"/><path d="M390.98,115.76c-.11,.61-.74,1.07-1.26,.85-.35-.15-.52-.45-.48-.83,.08-.67,.68-1.08,1.26-.86,.36,.14,.52,.43,.48,.85Z" style="fill: inherit;"/><path d="M63.45,77.45c-.53-.07-.86-.37-.93-.9-.08-.63,.49-1.17,1.11-1.05,.56,.11,.77,.52,.73,1.05-.04,.52-.45,.91-.91,.9Z" style="fill: inherit;"/><path d="M343.58,74.47c-.43-.01-.73-.22-.8-.6-.12-.68,.16-1.19,.85-1.34,.55-.13,.97,.16,1,.73,.03,.69-.38,1.11-1.05,1.21Z" style="fill: inherit;"/><path d="M220.53,230.63c-.43-.07-.71-.33-.68-.71,.06-.69,.56-.99,1.21-.98,.4,.01,.65,.34,.64,.72-.03,.73-.55,.95-1.17,.97Z" style="fill: inherit;"/><path d="M206.2,26.59c-.51-.11-.89-.43-.91-.93-.01-.52,.38-.9,.89-.89,.5,0,.89,.39,.9,.91,0,.52-.37,.83-.89,.91Z" style="fill: inherit;"/><path d="M347.21,85.71c-.59,.01-.99-.25-1.02-.82-.04-.73,.42-1.12,1.11-1.2,.42-.05,.72,.23,.77,.63,.1,.69-.21,1.18-.87,1.39Z" style="fill: inherit;"/><path d="M347.4,102.73c.06,.7-.28,1.17-.95,1.33-.38,.09-.74-.15-.8-.55-.1-.7,.25-1.19,.93-1.35,.39-.09,.69,.15,.82,.57Z" style="fill: inherit;"/><path d="M144.67,243.61c-.4-.11-.67-.48-.56-1.04,.08-.39,.42-.62,.81-.57,.59,.07,.84,.49,.71,1.05-.09,.37-.38,.61-.96,.56Z" style="fill: inherit;"/><path d="M156.67,251.13c-.58,.02-.91-.29-.98-.82-.07-.51,.13-.94,.65-1.12,.56-.19,1.22,.35,1.18,.97-.03,.52-.31,.88-.85,.97Z" style="fill: inherit;"/><path d="M.76,294.26c-.53-.15-.85-.5-.73-1.06,.12-.53,.52-.83,1.06-.73,.53,.1,.86,.48,.73,1.05-.12,.53-.51,.77-1.06,.74Z" style="fill: inherit;"/><path d="M112.53,369.42c.02-.41,.21-.7,.6-.81,.49-.14,.98,.34,.86,.85-.09,.38-.36,.67-.76,.68-.44,0-.64-.31-.7-.71Z" style="fill: inherit;"/><path d="M185.05,146.01c-.58-.06-.87-.41-.86-.95,.02-.54,.34-.95,.91-.82,.28,.06,.6,.44,.68,.73,.15,.55-.16,.92-.73,1.04Z" style="fill: inherit;"/><path d="M312.96,303.24c-.56,.03-.94-.23-.99-.79-.03-.39,.26-.69,.65-.75,.57-.1,.96,.19,.99,.76,.02,.39-.24,.67-.65,.78Z" style="fill: inherit;"/><path d="M230.81,197.86c.06-.31,.4-.64,.97-.61,.41,.02,.73,.27,.69,.72-.05,.57-.44,.88-1,.85-.39-.02-.72-.23-.66-.97Z" style="fill: inherit;"/><path d="M411.53,90.94c-.52-.32-1.06-.67-1-1.37,.03-.32,.24-.69,.48-.91,.27-.25,.74-.24,.96,.06,.18,.25,.28,.68,.2,.97-.13,.45-.44,.85-.68,1.27,0,0,.05-.03,.05-.03Z" style="fill: inherit;"/><path d="M404.66,10.13c-.43,.01-.72-.18-.79-.56-.09-.54,.13-.95,.71-1.03,.38-.05,.71,.15,.78,.54,.09,.55-.21,.89-.69,1.05Z" style="fill: inherit;"/><path d="M36.46,262.49c-.52-.13-.93-.43-.75-.98,.17-.5,.7-.59,1.21-.5,.41,.08,.64,.37,.58,.77-.08,.57-.51,.74-1.04,.7Z" style="fill: inherit;"/><path d="M162.36,420.56c.02-.55,.28-.91,.85-.91,.42,0,.68,.29,.72,.68,.05,.57-.28,.89-.84,.9-.42,0-.64-.28-.73-.67Z" style="fill: inherit;"/><path d="M329.77,162.85c-.39-.11-.62-.39-.59-.76,.05-.53,.41-.83,.96-.76,.39,.05,.63,.37,.58,.74-.06,.52-.42,.79-.96,.77Z" style="fill: inherit;"/><path d="M115.05,198.01c-.43-.03-.73-.26-.72-.69,0-.42,.3-.7,.73-.69,.42,0,.73,.28,.73,.7,0,.43-.32,.64-.74,.68Z" style="fill: inherit;"/><path d="M214.42,254.48c-.4,0-.7-.19-.75-.57-.07-.54,.17-.94,.76-.9,.39,.02,.63,.35,.63,.74,0,.4-.25,.64-.64,.73Z" style="fill: inherit;"/><path d="M106.52,219.58c-.04-.39,.12-.69,.48-.79,.52-.15,.94,.04,1.05,.59,.08,.37-.13,.68-.48,.8-.54,.18-.88-.09-1.06-.6Z" style="fill: inherit;"/><path d="M206.75,279.19c0-.54,.25-.89,.79-.9,.39,0,.65,.29,.68,.67,.03,.52-.25,.9-.79,.91-.4,.01-.6-.31-.68-.68Z" style="fill: inherit;"/><path d="M306.07,183.89c-.52-.06-.83-.36-.77-.9,.04-.37,.29-.66,.69-.66,.56,0,.82,.38,.78,.9-.03,.38-.27,.63-.7,.66Z" style="fill: inherit;"/><path d="M475.77,79.03c-.5-.17-.89-.48-.83-1.03,.05-.45,.48-.5,.83-.34,.46,.2,.87,.52,.6,1.1-.07,.15-.4,.18-.6,.27Z" style="fill: inherit;"/><path d="M190.3,286.64c-.29,.04-.58-.13-.65-.52-.06-.4,.16-.71,.58-.71,.19,0,.45,.21,.54,.39,.17,.35,.05,.67-.47,.83Z" style="fill: inherit;"/><path d="M465.12,211.83c-.44,.06-.75-.13-.75-.57,0-.18,.24-.46,.42-.52,.41-.12,.75,.1,.74,.54,0,.18-.27,.36-.41,.54Z" style="fill: inherit;"/><path d="M296.04,122.11c.03,.22-.1,.56-.46,.7-.39,.15-.7-.07-.8-.46-.1-.38,.07-.74,.43-.87,.38-.14,.68,.05,.83,.63Z" style="fill: inherit;"/><path d="M189.05,21.81c0,.31-.23,.55-.61,.55-.38,0-.66-.24-.62-.63,.02-.18,.25-.43,.43-.48,.36-.09,.69,.05,.8,.56Z" style="fill: inherit;"/><path d="M244.93,145.99c-.4,0-.69-.17-.7-.59,0-.38,.25-.66,.62-.71,.41-.06,.68,.17,.69,.59,0,.38-.23,.62-.61,.71Z" style="fill: inherit;"/><path d="M182.82,195.18c-.1,.43-.39,.63-.79,.52-.18-.05-.41-.34-.4-.52,.02-.43,.36-.64,.76-.51,.18,.06,.29,.33,.43,.51Z" style="fill: inherit;"/><path d="M484.77,139.34c-.43,.05-.75-.11-.77-.55,0-.18,.23-.48,.4-.53,.41-.11,.74,.11,.76,.54,0,.17-.26,.36-.4,.54Z" style="fill: inherit;"/><path d="M139.65,109.67c-.38-.25-.47-.6-.31-.98,.16-.37,.49-.53,.9-.45,.5,.1,.71,.73,.4,1.16-.22,.31-.67,.42-.98,.26Z" style="fill: inherit;"/><path d="M158.81,99.57c.08-.28,.36-.5,.76-.37,.39,.12,.56,.48,.39,.85-.08,.18-.37,.39-.56,.38-.4-.02-.65-.3-.58-.86Z" style="fill: inherit;"/><path d="M383.33,37.54c-.42,.04-.76-.12-.82-.53-.06-.42,.23-.72,.65-.72,.2,0,.48,.2,.57,.39,.18,.38,.01,.7-.39,.86Z" style="fill: inherit;"/><path d="M327.48,55.73c-.39-.14-.57-.45-.48-.81,.14-.54,.54-.78,1.07-.55,.17,.07,.35,.38,.33,.57-.04,.54-.38,.81-.92,.79Z" style="fill: inherit;"/><path d="M400.49,223.5c-.42-.1-.61-.4-.48-.78,.06-.17,.34-.41,.5-.39,.42,.03,.61,.38,.49,.76-.05,.17-.33,.28-.51,.41Z" style="fill: inherit;"/><path d="M166.74,315c-.14,.39-.43,.61-.82,.5-.41-.11-.55-.48-.36-.85,.09-.18,.37-.38,.56-.38,.41,0,.64,.29,.62,.72Z" style="fill: inherit;"/><path d="M323.73,230.44c.04-.23,.26-.52,.63-.54,.39-.02,.64,.27,.63,.66,0,.39-.26,.67-.64,.68-.38,0-.65-.22-.63-.8Z" style="fill: inherit;"/></g></g></svg>